<?xml version="1.0" encoding="utf-8"?>
<!-- Generator: Adobe Illustrator 17.0.0, SVG Export Plug-In . SVG Version: 6.00 Build 0)  -->
<!DOCTYPE svg PUBLIC "-//W3C//DTD SVG 1.1//EN" "http://www.w3.org/Graphics/SVG/1.1/DTD/svg11.dtd">
<svg version="1.1" id="Layer_1" xmlns="http://www.w3.org/2000/svg" xmlns:xlink="http://www.w3.org/1999/xlink" x="0px" y="0px"
	 width="100px" height="55px" viewBox="0 0 100 55" enable-background="new 0 0 100 55" xml:space="preserve">
<g>
	<path fill="#FFFFFF" d="M9.853,24.04c1.662,0,3.159-0.829,4.488-2.488L17.3,24.87c-2.305,2.388-4.799,3.582-7.481,3.582
		c-2.682,0-4.949-0.846-6.799-2.538c-1.851-1.691-2.776-3.903-2.776-6.634c0-2.731,0.936-4.954,2.809-6.668
		c1.873-1.713,4.095-2.571,6.667-2.571c1.285,0,2.588,0.265,3.907,0.796c1.318,0.531,2.477,1.316,3.474,2.355l-2.593,3.384
		c-0.577-0.685-1.28-1.216-2.111-1.592c-0.831-0.376-1.657-0.564-2.477-0.564c-1.308,0-2.433,0.426-3.375,1.277
		c-0.943,0.851-1.413,2.035-1.413,3.549c0,1.515,0.471,2.693,1.413,3.533C7.486,23.62,8.589,24.04,9.853,24.04z"/>
	<path fill="#FFFFFF" d="M28.372,14.719c-1.485,0-2.593,0.526-3.325,1.576c-0.732,1.05-1.097,2.438-1.097,4.163v7.729h-4.987V10.34
		h4.987v2.355c0.642-0.73,1.446-1.349,2.411-1.858c0.964-0.508,1.945-0.774,2.942-0.796l0.034,4.677H28.372z"/>
	<path fill="#FFFFFF" d="M34.057,35.219c-1.751,0-3.403-0.708-4.954-2.123l2.261-3.682c0.842,0.818,1.707,1.227,2.593,1.227
		c0.466,0,0.865-0.227,1.197-0.68c0.333-0.454,0.499-0.935,0.499-1.443c0-0.509-2.305-6.568-6.916-18.178h5.319l4.356,11.112
		l4.355-11.112h5.32l-8.312,21.03c-0.488,1.216-1.247,2.162-2.278,2.836C36.467,34.881,35.32,35.219,34.057,35.219z"/>
	<path fill="#FFFFFF" d="M59.326,10.042c2.084,0,3.94,0.868,5.569,2.604c1.629,1.736,2.444,3.92,2.444,6.551
		c0,2.632-0.815,4.832-2.444,6.601c-1.63,1.769-3.536,2.654-5.719,2.654c-2.184,0-3.94-0.874-5.27-2.621v8.79h-4.987V10.34h4.987
		v1.99C55.436,10.805,57.242,10.042,59.326,10.042z M53.84,19.28c0,1.449,0.404,2.632,1.214,3.549s1.79,1.376,2.943,1.376
		c1.152,0,2.161-0.459,3.026-1.376s1.297-2.095,1.297-3.533c0-1.437-0.421-2.642-1.263-3.616c-0.842-0.973-1.851-1.46-3.026-1.46
		c-1.175,0-2.167,0.481-2.976,1.443C54.244,16.626,53.84,17.832,53.84,19.28z"/>
	<path fill="#FFFFFF" d="M75.053,13.923v7.994c0,0.686,0.177,1.223,0.532,1.609c0.355,0.387,0.776,0.581,1.264,0.581
		c0.931,0,1.717-0.42,2.36-1.26l1.862,3.483c-1.552,1.415-3.187,2.123-4.905,2.123c-1.718,0-3.17-0.564-4.355-1.692
		c-1.186-1.128-1.779-2.665-1.779-4.611v-8.226h-2.095V10.34h2.095V5h5.021v5.34h4.322v3.582H75.053z"/>
	<path fill="#FFFFFF" d="M99.756,19.264c0,2.587-0.898,4.766-2.693,6.535s-4.051,2.654-6.766,2.654
		c-2.716,0-4.971-0.885-6.767-2.654s-2.693-3.948-2.693-6.535c0-2.588,0.898-4.771,2.693-6.551c1.795-1.78,4.051-2.67,6.767-2.67
		c2.715,0,4.97,0.89,6.766,2.67C98.858,14.492,99.756,16.676,99.756,19.264z M85.858,19.264c0,1.459,0.415,2.648,1.247,3.566
		s1.896,1.376,3.192,1.376c1.297,0,2.361-0.459,3.192-1.376c0.831-0.918,1.247-2.107,1.247-3.566c0-1.46-0.416-2.654-1.247-3.582
		c-0.831-0.929-1.895-1.393-3.192-1.393c-1.297,0-2.361,0.465-3.192,1.393C86.273,16.61,85.858,17.804,85.858,19.264z"/>
</g>
<g>
	<path fill="#FFFFFF" d="M3.69,48.918H2.082v-9.5h2.506l2.875,5.967l2.874-5.967h2.493v9.5h-1.607v-7.42L7.899,48.09H7l-3.31-6.592
		V48.918z"/>
	<path fill="#FFFFFF" d="M20.446,48.918h-1.39v-0.965c-0.599,0.716-1.403,1.074-2.411,1.074c-0.754,0-1.378-0.213-1.873-0.639
		c-0.495-0.425-0.742-0.994-0.742-1.705c0-0.711,0.263-1.244,0.79-1.597c0.527-0.354,1.24-0.53,2.139-0.53h1.975v-0.272
		c0-0.96-0.536-1.44-1.607-1.44c-0.672,0-1.371,0.244-2.098,0.734l-0.681-0.951c0.881-0.698,1.88-1.047,2.997-1.047
		c0.853,0,1.551,0.216,2.091,0.646c0.54,0.43,0.811,1.108,0.811,2.032V48.918z M18.92,46.228v-0.612h-1.717
		c-1.099,0-1.648,0.344-1.648,1.033c0,0.353,0.136,0.623,0.409,0.808c0.272,0.186,0.652,0.279,1.138,0.279
		c0.486,0,0.91-0.136,1.274-0.408C18.738,47.057,18.92,46.69,18.92,46.228z"/>
	<path fill="#FFFFFF" d="M25.69,43.115c-0.754,0-1.321,0.245-1.703,0.734c-0.381,0.489-0.572,1.147-0.572,1.971v3.099H21.89v-7.231
		h1.526v1.455c0.245-0.453,0.579-0.824,1.001-1.115c0.422-0.29,0.87-0.439,1.342-0.449l0.014,1.536
		C25.745,43.115,25.717,43.115,25.69,43.115z"/>
	<path fill="#FFFFFF" d="M28.142,48.918h-1.526V38.834h1.526v5.926l2.942-3.072h1.962l-2.752,2.868l2.956,4.363h-1.852l-2.153-3.166
		l-1.103,1.114V48.918z"/>
	<path fill="#FFFFFF" d="M40.593,45.969h-5.681c0.036,0.525,0.277,0.949,0.722,1.27c0.445,0.322,0.954,0.483,1.526,0.483
		c0.908,0,1.598-0.286,2.07-0.856l0.872,0.951c-0.781,0.807-1.798,1.21-3.051,1.21c-1.017,0-1.882-0.337-2.595-1.013
		c-0.713-0.675-1.069-1.581-1.069-2.718c0-1.137,0.363-2.041,1.09-2.711c0.726-0.67,1.582-1.006,2.568-1.006
		c0.986,0,1.823,0.297,2.513,0.89c0.69,0.594,1.035,1.412,1.035,2.453V45.969z M34.912,44.773h4.155c0-0.607-0.191-1.074-0.572-1.4
		c-0.381-0.326-0.851-0.489-1.41-0.489c-0.559,0-1.06,0.17-1.505,0.509C35.135,43.733,34.912,44.193,34.912,44.773z"/>
	<path fill="#FFFFFF" d="M43.413,42.911v3.67c0,0.344,0.091,0.618,0.272,0.822c0.181,0.204,0.436,0.306,0.763,0.306
		c0.327,0,0.641-0.158,0.94-0.476l0.627,1.074c-0.536,0.48-1.129,0.72-1.778,0.72c-0.649,0-1.204-0.224-1.662-0.673
		c-0.459-0.449-0.688-1.053-0.688-1.814v-3.629h-0.913v-1.223h0.913v-2.27h1.526v2.27h1.907v1.223H43.413z"/>
	<path fill="#FFFFFF" d="M51.423,48.918h-1.607v-9.5h2.507l2.874,5.967l2.875-5.967h2.493v9.5h-1.607v-7.42l-3.324,6.592h-0.899
		l-3.31-6.592V48.918z"/>
	<path fill="#FFFFFF" d="M68.37,47.947c-0.727,0.72-1.635,1.08-2.725,1.08s-1.998-0.36-2.725-1.08
		c-0.727-0.72-1.09-1.601-1.09-2.643c0-1.042,0.363-1.923,1.09-2.644c0.727-0.72,1.635-1.08,2.725-1.08s1.998,0.36,2.725,1.08
		c0.726,0.721,1.09,1.602,1.09,2.644C69.46,46.345,69.096,47.227,68.37,47.947z M64.004,47.009c0.431,0.439,0.978,0.659,1.642,0.659
		c0.663,0,1.21-0.22,1.642-0.659c0.431-0.44,0.647-1.008,0.647-1.706c0-0.698-0.216-1.266-0.647-1.706
		c-0.431-0.44-0.979-0.659-1.642-0.659c-0.663,0-1.21,0.22-1.642,0.659c-0.431,0.439-0.647,1.008-0.647,1.706
		C63.356,46.001,63.572,46.569,64.004,47.009z"/>
	<path fill="#FFFFFF" d="M72.034,45.004v3.914h-1.526v-7.231h1.526v1.318c0.246-0.444,0.584-0.792,1.015-1.046
		c0.431-0.254,0.897-0.381,1.397-0.381c0.817,0,1.478,0.249,1.982,0.748s0.756,1.218,0.756,2.161v4.431h-1.526V44.95
		c0-1.332-0.554-1.998-1.662-1.998c-0.527,0-0.986,0.174-1.376,0.523S72.034,44.334,72.034,45.004z"/>
	<path fill="#FFFFFF" d="M78.722,40.247c-0.19-0.19-0.286-0.417-0.286-0.68c0-0.263,0.096-0.489,0.286-0.679
		c0.191-0.19,0.418-0.285,0.681-0.285c0.263,0,0.49,0.095,0.681,0.285c0.191,0.19,0.286,0.417,0.286,0.679
		c0,0.263-0.095,0.489-0.286,0.68c-0.191,0.19-0.418,0.285-0.681,0.285C79.14,40.533,78.913,40.438,78.722,40.247z M80.153,48.918
		h-1.526v-7.231h1.526V48.918z"/>
	<path fill="#FFFFFF" d="M83.559,42.911v3.67c0,0.344,0.091,0.618,0.272,0.822c0.181,0.204,0.436,0.306,0.763,0.306
		c0.327,0,0.641-0.158,0.94-0.476l0.627,1.074c-0.536,0.48-1.129,0.72-1.778,0.72c-0.649,0-1.204-0.224-1.662-0.673
		c-0.459-0.449-0.688-1.053-0.688-1.814v-3.629H81.12v-1.223h0.913v-2.27h1.526v2.27h1.907v1.223H83.559z"/>
	<path fill="#FFFFFF" d="M92.7,47.947c-0.727,0.72-1.635,1.08-2.725,1.08c-1.09,0-1.998-0.36-2.725-1.08
		c-0.727-0.72-1.09-1.601-1.09-2.643c0-1.042,0.363-1.923,1.09-2.644c0.727-0.72,1.635-1.08,2.725-1.08
		c1.09,0,1.998,0.36,2.725,1.08c0.726,0.721,1.09,1.602,1.09,2.644C93.79,46.345,93.426,47.227,92.7,47.947z M88.333,47.009
		c0.431,0.439,0.978,0.659,1.642,0.659c0.663,0,1.21-0.22,1.642-0.659c0.431-0.44,0.647-1.008,0.647-1.706
		c0-0.698-0.216-1.266-0.647-1.706c-0.431-0.44-0.979-0.659-1.642-0.659c-0.663,0-1.211,0.22-1.642,0.659
		c-0.431,0.439-0.647,1.008-0.647,1.706C87.686,46.001,87.902,46.569,88.333,47.009z"/>
	<path fill="#FFFFFF" d="M98.639,43.115c-0.754,0-1.321,0.245-1.703,0.734c-0.382,0.489-0.572,1.147-0.572,1.971v3.099h-1.526
		v-7.231h1.526v1.455c0.246-0.453,0.579-0.824,1.002-1.115c0.422-0.29,0.87-0.439,1.341-0.449l0.014,1.536
		C98.694,43.115,98.667,43.115,98.639,43.115z"/>
</g>
<rect x="7.996" y="5.612" fill="#FFFFFF" width="3.848" height="27.642"/>
</svg>
